<mxfile host="app.diagrams.net" agent="Mozilla/5.0 (Windows NT 10.0; Win64; x64) AppleWebKit/537.36 (KHTML, like Gecko) Chrome/134.0.0.0 Safari/537.36 Edg/134.0.0.0" version="26.0.5">
  <diagram id="R2lEEEUBdFMjLlhIrx00" name="Page-1">
    <mxGraphModel dx="996" dy="567" grid="1" gridSize="10" guides="1" tooltips="1" connect="1" arrows="1" fold="1" page="1" pageScale="1" pageWidth="850" pageHeight="1100" math="0" shadow="0" extFonts="Permanent Marker^https://fonts.googleapis.com/css?family=Permanent+Marker">
      <root>
        <mxCell id="0" />
        <mxCell id="1" parent="0" />
        <mxCell id="cykUmAgb2_RV6yECLL6O-1" value="Product" style="whiteSpace=wrap;html=1;align=center;fillColor=#60a917;strokeColor=#2D7600;fontColor=#ffffff;fontStyle=1" vertex="1" parent="1">
          <mxGeometry x="520" y="265" width="80" height="40" as="geometry" />
        </mxCell>
        <mxCell id="cykUmAgb2_RV6yECLL6O-7" value="Shipping" style="whiteSpace=wrap;html=1;align=center;fillColor=#60a917;strokeColor=#2D7600;fontColor=#ffffff;fontStyle=1" vertex="1" parent="1">
          <mxGeometry x="690" y="630" width="80" height="40" as="geometry" />
        </mxCell>
        <mxCell id="cykUmAgb2_RV6yECLL6O-8" value="Payment" style="whiteSpace=wrap;html=1;align=center;fillColor=#60a917;strokeColor=#2D7600;fontColor=#ffffff;fontStyle=1" vertex="1" parent="1">
          <mxGeometry x="445" y="840" width="80" height="40" as="geometry" />
        </mxCell>
        <mxCell id="cykUmAgb2_RV6yECLL6O-9" value="Category" style="whiteSpace=wrap;html=1;align=center;fillColor=#60a917;strokeColor=#2D7600;fontColor=#ffffff;fontStyle=1" vertex="1" parent="1">
          <mxGeometry x="585" y="100" width="80" height="40" as="geometry" />
        </mxCell>
        <mxCell id="cykUmAgb2_RV6yECLL6O-10" value="User" style="whiteSpace=wrap;html=1;align=center;fillColor=#60a917;strokeColor=#2D7600;fontColor=#ffffff;fontStyle=1" vertex="1" parent="1">
          <mxGeometry x="130" y="630" width="80" height="40" as="geometry" />
        </mxCell>
        <mxCell id="cykUmAgb2_RV6yECLL6O-11" value="Shopping Cart" style="shape=ext;margin=3;double=1;whiteSpace=wrap;html=1;align=center;fillColor=#a20025;strokeColor=#6F0000;fontColor=#ffffff;fontStyle=1" vertex="1" parent="1">
          <mxGeometry x="100" y="255" width="80" height="40" as="geometry" />
        </mxCell>
        <mxCell id="cykUmAgb2_RV6yECLL6O-13" value="Cart Item" style="shape=ext;margin=3;double=1;whiteSpace=wrap;html=1;align=center;fillColor=#a20025;fontColor=#ffffff;strokeColor=#6F0000;fontStyle=1" vertex="1" parent="1">
          <mxGeometry x="310" y="260" width="80" height="40" as="geometry" />
        </mxCell>
        <mxCell id="cykUmAgb2_RV6yECLL6O-15" value="Order Item" style="shape=ext;margin=3;double=1;whiteSpace=wrap;html=1;align=center;fillColor=#a20025;fontColor=#ffffff;strokeColor=#6F0000;fontStyle=1" vertex="1" parent="1">
          <mxGeometry x="520" y="440" width="80" height="40" as="geometry" />
        </mxCell>
        <mxCell id="cykUmAgb2_RV6yECLL6O-18" value="has" style="rhombus;whiteSpace=wrap;html=1;fillColor=#fa6800;fontColor=#000000;strokeColor=#C73500;" vertex="1" parent="1">
          <mxGeometry x="230" y="255" width="50" height="50" as="geometry" />
        </mxCell>
        <mxCell id="cykUmAgb2_RV6yECLL6O-19" value="refers to" style="rhombus;whiteSpace=wrap;html=1;fillColor=#fa6800;fontColor=#000000;strokeColor=#C73500;" vertex="1" parent="1">
          <mxGeometry x="430" y="255" width="50" height="50" as="geometry" />
        </mxCell>
        <mxCell id="cykUmAgb2_RV6yECLL6O-22" value="refers to" style="rhombus;whiteSpace=wrap;html=1;fillColor=#fa6800;fontColor=#000000;strokeColor=#C73500;" vertex="1" parent="1">
          <mxGeometry x="535" y="350" width="50" height="50" as="geometry" />
        </mxCell>
        <mxCell id="cykUmAgb2_RV6yECLL6O-24" value="contains" style="rhombus;whiteSpace=wrap;html=1;fillColor=#fa6800;fontColor=#000000;strokeColor=#C73500;" vertex="1" parent="1">
          <mxGeometry x="530" y="520" width="50" height="50" as="geometry" />
        </mxCell>
        <mxCell id="cykUmAgb2_RV6yECLL6O-25" value="owns" style="rhombus;whiteSpace=wrap;html=1;fillColor=#fa6800;fontColor=#000000;strokeColor=#C73500;" vertex="1" parent="1">
          <mxGeometry x="120" y="435" width="50" height="50" as="geometry" />
        </mxCell>
        <mxCell id="cykUmAgb2_RV6yECLL6O-27" value="places" style="rhombus;whiteSpace=wrap;html=1;fillColor=#fa6800;fontColor=#000000;strokeColor=#C73500;" vertex="1" parent="1">
          <mxGeometry x="300" y="620" width="60" height="60" as="geometry" />
        </mxCell>
        <mxCell id="cykUmAgb2_RV6yECLL6O-28" value="ships&lt;div&gt;to&lt;/div&gt;" style="rhombus;whiteSpace=wrap;html=1;fillColor=#fa6800;fontColor=#000000;strokeColor=#C73500;" vertex="1" parent="1">
          <mxGeometry x="580" y="620" width="60" height="60" as="geometry" />
        </mxCell>
        <mxCell id="cykUmAgb2_RV6yECLL6O-29" value="pays&lt;div&gt;for&lt;/div&gt;" style="rhombus;whiteSpace=wrap;html=1;fillColor=#fa6800;fontColor=#000000;strokeColor=#C73500;" vertex="1" parent="1">
          <mxGeometry x="455" y="730" width="60" height="60" as="geometry" />
        </mxCell>
        <mxCell id="cykUmAgb2_RV6yECLL6O-30" value="has" style="rhombus;whiteSpace=wrap;html=1;fillColor=#fa6800;fontColor=#000000;strokeColor=#C73500;" vertex="1" parent="1">
          <mxGeometry x="590" y="180" width="50" height="50" as="geometry" />
        </mxCell>
        <mxCell id="cykUmAgb2_RV6yECLL6O-32" value="" style="endArrow=none;html=1;rounded=0;" edge="1" parent="1">
          <mxGeometry width="50" height="50" relative="1" as="geometry">
            <mxPoint x="145" y="430" as="sourcePoint" />
            <mxPoint x="144.5" y="295" as="targetPoint" />
          </mxGeometry>
        </mxCell>
        <mxCell id="cykUmAgb2_RV6yECLL6O-33" value="" style="endArrow=none;html=1;rounded=0;" edge="1" parent="1">
          <mxGeometry width="50" height="50" relative="1" as="geometry">
            <mxPoint x="145" y="620" as="sourcePoint" />
            <mxPoint x="144.5" y="485" as="targetPoint" />
          </mxGeometry>
        </mxCell>
        <mxCell id="cykUmAgb2_RV6yECLL6O-34" value="1" style="text;html=1;align=center;verticalAlign=middle;resizable=0;points=[];autosize=1;strokeColor=none;fillColor=none;" vertex="1" parent="1">
          <mxGeometry x="140" y="290" width="30" height="30" as="geometry" />
        </mxCell>
        <mxCell id="cykUmAgb2_RV6yECLL6O-35" value="1" style="text;html=1;align=center;verticalAlign=middle;resizable=0;points=[];autosize=1;strokeColor=none;fillColor=none;" vertex="1" parent="1">
          <mxGeometry x="140" y="590" width="30" height="30" as="geometry" />
        </mxCell>
        <mxCell id="cykUmAgb2_RV6yECLL6O-36" value="" style="endArrow=none;html=1;rounded=0;" edge="1" parent="1">
          <mxGeometry width="50" height="50" relative="1" as="geometry">
            <mxPoint x="190" y="279.5" as="sourcePoint" />
            <mxPoint x="230" y="279.5" as="targetPoint" />
          </mxGeometry>
        </mxCell>
        <mxCell id="cykUmAgb2_RV6yECLL6O-38" value="" style="endArrow=none;html=1;rounded=0;" edge="1" parent="1">
          <mxGeometry width="50" height="50" relative="1" as="geometry">
            <mxPoint x="280" y="279.5" as="sourcePoint" />
            <mxPoint x="310" y="279.5" as="targetPoint" />
          </mxGeometry>
        </mxCell>
        <mxCell id="cykUmAgb2_RV6yECLL6O-39" value="" style="endArrow=none;html=1;rounded=0;" edge="1" parent="1">
          <mxGeometry width="50" height="50" relative="1" as="geometry">
            <mxPoint x="390" y="279.5" as="sourcePoint" />
            <mxPoint x="430" y="279.5" as="targetPoint" />
          </mxGeometry>
        </mxCell>
        <mxCell id="cykUmAgb2_RV6yECLL6O-40" value="" style="endArrow=none;html=1;rounded=0;" edge="1" parent="1">
          <mxGeometry width="50" height="50" relative="1" as="geometry">
            <mxPoint x="500" y="280" as="sourcePoint" />
            <mxPoint x="520" y="279.5" as="targetPoint" />
          </mxGeometry>
        </mxCell>
        <mxCell id="cykUmAgb2_RV6yECLL6O-41" value="" style="endArrow=none;html=1;rounded=0;" edge="1" parent="1">
          <mxGeometry width="50" height="50" relative="1" as="geometry">
            <mxPoint x="585" y="266" as="sourcePoint" />
            <mxPoint x="615" y="230" as="targetPoint" />
          </mxGeometry>
        </mxCell>
        <mxCell id="cykUmAgb2_RV6yECLL6O-43" value="" style="endArrow=none;html=1;rounded=0;entryX=0.38;entryY=0.97;entryDx=0;entryDy=0;entryPerimeter=0;" edge="1" parent="1" target="cykUmAgb2_RV6yECLL6O-9">
          <mxGeometry width="50" height="50" relative="1" as="geometry">
            <mxPoint x="614.5" y="180" as="sourcePoint" />
            <mxPoint x="615" y="150" as="targetPoint" />
          </mxGeometry>
        </mxCell>
        <mxCell id="cykUmAgb2_RV6yECLL6O-44" value="M" style="text;html=1;align=center;verticalAlign=middle;resizable=0;points=[];autosize=1;strokeColor=none;fillColor=none;" vertex="1" parent="1">
          <mxGeometry x="590" y="250" width="30" height="30" as="geometry" />
        </mxCell>
        <mxCell id="cykUmAgb2_RV6yECLL6O-45" value="M" style="text;html=1;align=center;verticalAlign=middle;resizable=0;points=[];autosize=1;strokeColor=none;fillColor=none;" vertex="1" parent="1">
          <mxGeometry x="280" y="255" width="30" height="30" as="geometry" />
        </mxCell>
        <mxCell id="cykUmAgb2_RV6yECLL6O-46" value="M" style="text;html=1;align=center;verticalAlign=middle;resizable=0;points=[];autosize=1;strokeColor=none;fillColor=none;" vertex="1" parent="1">
          <mxGeometry x="390" y="255" width="30" height="30" as="geometry" />
        </mxCell>
        <mxCell id="cykUmAgb2_RV6yECLL6O-48" value="M" style="text;html=1;align=center;verticalAlign=middle;resizable=0;points=[];autosize=1;strokeColor=none;fillColor=none;" vertex="1" parent="1">
          <mxGeometry x="405" y="620" width="30" height="30" as="geometry" />
        </mxCell>
        <mxCell id="cykUmAgb2_RV6yECLL6O-50" value="1" style="text;html=1;align=center;verticalAlign=middle;resizable=0;points=[];autosize=1;strokeColor=none;fillColor=none;" vertex="1" parent="1">
          <mxGeometry x="500" y="600" width="30" height="30" as="geometry" />
        </mxCell>
        <mxCell id="cykUmAgb2_RV6yECLL6O-52" value="1" style="text;html=1;align=center;verticalAlign=middle;resizable=0;points=[];autosize=1;strokeColor=none;fillColor=none;" vertex="1" parent="1">
          <mxGeometry x="610" y="140" width="30" height="30" as="geometry" />
        </mxCell>
        <mxCell id="cykUmAgb2_RV6yECLL6O-54" value="" style="endArrow=none;html=1;rounded=0;" edge="1" parent="1">
          <mxGeometry width="50" height="50" relative="1" as="geometry">
            <mxPoint x="480" y="279.5" as="sourcePoint" />
            <mxPoint x="510" y="280" as="targetPoint" />
          </mxGeometry>
        </mxCell>
        <mxCell id="cykUmAgb2_RV6yECLL6O-53" value="1" style="text;html=1;align=center;verticalAlign=middle;resizable=0;points=[];autosize=1;strokeColor=none;fillColor=none;" vertex="1" parent="1">
          <mxGeometry x="490" y="250" width="30" height="30" as="geometry" />
        </mxCell>
        <mxCell id="cykUmAgb2_RV6yECLL6O-55" value="" style="endArrow=none;html=1;rounded=0;" edge="1" parent="1">
          <mxGeometry width="50" height="50" relative="1" as="geometry">
            <mxPoint x="559.5" y="350" as="sourcePoint" />
            <mxPoint x="559.5" y="310" as="targetPoint" />
          </mxGeometry>
        </mxCell>
        <mxCell id="cykUmAgb2_RV6yECLL6O-56" value="" style="endArrow=none;html=1;rounded=0;" edge="1" parent="1">
          <mxGeometry width="50" height="50" relative="1" as="geometry">
            <mxPoint x="559.5" y="440" as="sourcePoint" />
            <mxPoint x="559.5" y="400" as="targetPoint" />
          </mxGeometry>
        </mxCell>
        <mxCell id="cykUmAgb2_RV6yECLL6O-57" value="" style="endArrow=none;html=1;rounded=0;" edge="1" parent="1">
          <mxGeometry width="50" height="50" relative="1" as="geometry">
            <mxPoint x="554.5" y="520" as="sourcePoint" />
            <mxPoint x="554.5" y="480" as="targetPoint" />
          </mxGeometry>
        </mxCell>
        <mxCell id="cykUmAgb2_RV6yECLL6O-59" value="1" style="text;html=1;align=center;verticalAlign=middle;resizable=0;points=[];autosize=1;strokeColor=none;fillColor=none;" vertex="1" parent="1">
          <mxGeometry x="170" y="255" width="30" height="30" as="geometry" />
        </mxCell>
        <mxCell id="cykUmAgb2_RV6yECLL6O-60" value="1" style="text;html=1;align=center;verticalAlign=middle;resizable=0;points=[];autosize=1;strokeColor=none;fillColor=none;" vertex="1" parent="1">
          <mxGeometry x="550" y="305" width="30" height="30" as="geometry" />
        </mxCell>
        <mxCell id="cykUmAgb2_RV6yECLL6O-64" value="M" style="text;html=1;align=center;verticalAlign=middle;resizable=0;points=[];autosize=1;strokeColor=none;fillColor=none;" vertex="1" parent="1">
          <mxGeometry x="550" y="475" width="30" height="30" as="geometry" />
        </mxCell>
        <mxCell id="cykUmAgb2_RV6yECLL6O-65" value="M" style="text;html=1;align=center;verticalAlign=middle;resizable=0;points=[];autosize=1;strokeColor=none;fillColor=none;" vertex="1" parent="1">
          <mxGeometry x="555" y="410" width="30" height="30" as="geometry" />
        </mxCell>
        <mxCell id="cykUmAgb2_RV6yECLL6O-66" value="" style="endArrow=none;html=1;rounded=0;exitX=0.643;exitY=-0.04;exitDx=0;exitDy=0;exitPerimeter=0;" edge="1" parent="1" source="cykUmAgb2_RV6yECLL6O-2">
          <mxGeometry width="50" height="50" relative="1" as="geometry">
            <mxPoint x="525" y="600" as="sourcePoint" />
            <mxPoint x="555" y="570" as="targetPoint" />
          </mxGeometry>
        </mxCell>
        <mxCell id="cykUmAgb2_RV6yECLL6O-67" value="" style="endArrow=none;html=1;rounded=0;" edge="1" parent="1" source="cykUmAgb2_RV6yECLL6O-2">
          <mxGeometry width="50" height="50" relative="1" as="geometry">
            <mxPoint x="450" y="680" as="sourcePoint" />
            <mxPoint x="500" y="630" as="targetPoint" />
          </mxGeometry>
        </mxCell>
        <mxCell id="cykUmAgb2_RV6yECLL6O-68" value="" style="endArrow=none;html=1;rounded=0;" edge="1" parent="1">
          <mxGeometry width="50" height="50" relative="1" as="geometry">
            <mxPoint x="300" y="649.5" as="sourcePoint" />
            <mxPoint x="210" y="649.5" as="targetPoint" />
            <Array as="points" />
          </mxGeometry>
        </mxCell>
        <mxCell id="cykUmAgb2_RV6yECLL6O-2" value="Order" style="whiteSpace=wrap;html=1;align=center;fillColor=#60a917;strokeColor=#2D7600;fontColor=#ffffff;fontStyle=1" vertex="1" parent="1">
          <mxGeometry x="435" y="630" width="80" height="40" as="geometry" />
        </mxCell>
        <mxCell id="cykUmAgb2_RV6yECLL6O-69" value="" style="endArrow=none;html=1;rounded=0;" edge="1" parent="1">
          <mxGeometry width="50" height="50" relative="1" as="geometry">
            <mxPoint x="432.5" y="649.5" as="sourcePoint" />
            <mxPoint x="357.5" y="649.5" as="targetPoint" />
            <Array as="points" />
          </mxGeometry>
        </mxCell>
        <mxCell id="cykUmAgb2_RV6yECLL6O-70" value="" style="endArrow=none;html=1;rounded=0;" edge="1" parent="1">
          <mxGeometry width="50" height="50" relative="1" as="geometry">
            <mxPoint x="580" y="649.5" as="sourcePoint" />
            <mxPoint x="520" y="650" as="targetPoint" />
            <Array as="points" />
          </mxGeometry>
        </mxCell>
        <mxCell id="cykUmAgb2_RV6yECLL6O-71" value="" style="endArrow=none;html=1;rounded=0;exitX=0;exitY=0.5;exitDx=0;exitDy=0;" edge="1" parent="1" source="cykUmAgb2_RV6yECLL6O-7">
          <mxGeometry width="50" height="50" relative="1" as="geometry">
            <mxPoint x="680" y="649.5" as="sourcePoint" />
            <mxPoint x="640" y="649.5" as="targetPoint" />
            <Array as="points" />
          </mxGeometry>
        </mxCell>
        <mxCell id="cykUmAgb2_RV6yECLL6O-72" value="1" style="text;html=1;align=center;verticalAlign=middle;resizable=0;points=[];autosize=1;strokeColor=none;fillColor=none;" vertex="1" parent="1">
          <mxGeometry x="480" y="810" width="30" height="30" as="geometry" />
        </mxCell>
        <mxCell id="cykUmAgb2_RV6yECLL6O-73" value="1" style="text;html=1;align=center;verticalAlign=middle;resizable=0;points=[];autosize=1;strokeColor=none;fillColor=none;" vertex="1" parent="1">
          <mxGeometry x="480" y="670" width="30" height="30" as="geometry" />
        </mxCell>
        <mxCell id="cykUmAgb2_RV6yECLL6O-74" value="1" style="text;html=1;align=center;verticalAlign=middle;resizable=0;points=[];autosize=1;strokeColor=none;fillColor=none;" vertex="1" parent="1">
          <mxGeometry x="665" y="620" width="30" height="30" as="geometry" />
        </mxCell>
        <mxCell id="cykUmAgb2_RV6yECLL6O-75" value="1" style="text;html=1;align=center;verticalAlign=middle;resizable=0;points=[];autosize=1;strokeColor=none;fillColor=none;" vertex="1" parent="1">
          <mxGeometry x="505" y="620" width="30" height="30" as="geometry" />
        </mxCell>
        <mxCell id="cykUmAgb2_RV6yECLL6O-76" value="1" style="text;html=1;align=center;verticalAlign=middle;resizable=0;points=[];autosize=1;strokeColor=none;fillColor=none;" vertex="1" parent="1">
          <mxGeometry x="200" y="630" width="30" height="30" as="geometry" />
        </mxCell>
        <mxCell id="cykUmAgb2_RV6yECLL6O-77" value="" style="endArrow=none;html=1;rounded=0;" edge="1" parent="1">
          <mxGeometry width="50" height="50" relative="1" as="geometry">
            <mxPoint x="484.5" y="730" as="sourcePoint" />
            <mxPoint x="484.5" y="670" as="targetPoint" />
          </mxGeometry>
        </mxCell>
        <mxCell id="cykUmAgb2_RV6yECLL6O-79" value="" style="endArrow=none;html=1;rounded=0;exitX=0.5;exitY=0;exitDx=0;exitDy=0;" edge="1" parent="1" source="cykUmAgb2_RV6yECLL6O-8">
          <mxGeometry width="50" height="50" relative="1" as="geometry">
            <mxPoint x="484.5" y="820" as="sourcePoint" />
            <mxPoint x="484.5" y="790" as="targetPoint" />
          </mxGeometry>
        </mxCell>
        <mxCell id="cykUmAgb2_RV6yECLL6O-82" value="" style="ellipse;whiteSpace=wrap;html=1;" vertex="1" parent="1">
          <mxGeometry x="200" y="20" width="80" height="30" as="geometry" />
        </mxCell>
        <mxCell id="cykUmAgb2_RV6yECLL6O-83" value="" style="ellipse;whiteSpace=wrap;html=1;" vertex="1" parent="1">
          <mxGeometry x="255" y="780" width="80" height="30" as="geometry" />
        </mxCell>
        <mxCell id="cykUmAgb2_RV6yECLL6O-84" value="" style="ellipse;whiteSpace=wrap;html=1;" vertex="1" parent="1">
          <mxGeometry x="240" y="845" width="80" height="30" as="geometry" />
        </mxCell>
        <mxCell id="cykUmAgb2_RV6yECLL6O-85" value="Card ID" style="ellipse;whiteSpace=wrap;html=1;fontStyle=5" vertex="1" parent="1">
          <mxGeometry x="40" y="200" width="80" height="30" as="geometry" />
        </mxCell>
        <mxCell id="cykUmAgb2_RV6yECLL6O-86" value="USER ID&lt;div&gt;FK&lt;/div&gt;" style="ellipse;whiteSpace=wrap;html=1;fontStyle=1" vertex="1" parent="1">
          <mxGeometry x="140" y="200" width="80" height="30" as="geometry" />
        </mxCell>
        <mxCell id="cykUmAgb2_RV6yECLL6O-87" value="" style="ellipse;whiteSpace=wrap;html=1;" vertex="1" parent="1">
          <mxGeometry x="25" y="780" width="80" height="30" as="geometry" />
        </mxCell>
        <mxCell id="cykUmAgb2_RV6yECLL6O-88" value="Amount&amp;nbsp;&lt;div&gt;Paid&lt;/div&gt;" style="ellipse;whiteSpace=wrap;html=1;fontStyle=1" vertex="1" parent="1">
          <mxGeometry x="460" y="950" width="75" height="30" as="geometry" />
        </mxCell>
        <mxCell id="cykUmAgb2_RV6yECLL6O-89" value="Date of Birth" style="ellipse;whiteSpace=wrap;html=1;fontStyle=1" vertex="1" parent="1">
          <mxGeometry x="30" y="660" width="85" height="20" as="geometry" />
        </mxCell>
        <mxCell id="cykUmAgb2_RV6yECLL6O-90" value="Status" style="ellipse;whiteSpace=wrap;html=1;fontStyle=1" vertex="1" parent="1">
          <mxGeometry x="230" y="900" width="80" height="30" as="geometry" />
        </mxCell>
        <mxCell id="cykUmAgb2_RV6yECLL6O-91" value="Email" style="ellipse;whiteSpace=wrap;html=1;fontStyle=1" vertex="1" parent="1">
          <mxGeometry x="40" y="595" width="65" height="20" as="geometry" />
        </mxCell>
        <mxCell id="cykUmAgb2_RV6yECLL6O-92" value="Phone no." style="ellipse;whiteSpace=wrap;html=1;fontStyle=1" vertex="1" parent="1">
          <mxGeometry x="55" y="560" width="75" height="15" as="geometry" />
        </mxCell>
        <mxCell id="cykUmAgb2_RV6yECLL6O-93" value="country" style="ellipse;whiteSpace=wrap;html=1;fontStyle=1" vertex="1" parent="1">
          <mxGeometry x="140" y="720" width="65" height="20" as="geometry" />
        </mxCell>
        <mxCell id="cykUmAgb2_RV6yECLL6O-94" value="city" style="ellipse;whiteSpace=wrap;html=1;fontStyle=1" vertex="1" parent="1">
          <mxGeometry x="202.5" y="740" width="45" height="20" as="geometry" />
        </mxCell>
        <mxCell id="cykUmAgb2_RV6yECLL6O-95" value="zip" style="ellipse;whiteSpace=wrap;html=1;fontStyle=1" vertex="1" parent="1">
          <mxGeometry x="250" y="740" width="40" height="20" as="geometry" />
        </mxCell>
        <mxCell id="cykUmAgb2_RV6yECLL6O-96" value="Street" style="ellipse;whiteSpace=wrap;html=1;fontStyle=1" vertex="1" parent="1">
          <mxGeometry x="290" y="710" width="50" height="20" as="geometry" />
        </mxCell>
        <mxCell id="cykUmAgb2_RV6yECLL6O-97" value="Address" style="ellipse;whiteSpace=wrap;html=1;fontStyle=1" vertex="1" parent="1">
          <mxGeometry x="215" y="690" width="55" height="20" as="geometry" />
        </mxCell>
        <mxCell id="cykUmAgb2_RV6yECLL6O-98" value="UserID" style="ellipse;whiteSpace=wrap;html=1;fontStyle=5" vertex="1" parent="1">
          <mxGeometry x="80" y="690" width="60" height="20" as="geometry" />
        </mxCell>
        <mxCell id="cykUmAgb2_RV6yECLL6O-99" value="Last Name" style="ellipse;whiteSpace=wrap;html=1;fontStyle=1" vertex="1" parent="1">
          <mxGeometry x="200" y="530" width="50" height="30" as="geometry" />
        </mxCell>
        <mxCell id="cykUmAgb2_RV6yECLL6O-100" value="First Name" style="ellipse;whiteSpace=wrap;html=1;fontStyle=1" vertex="1" parent="1">
          <mxGeometry x="280" y="540" width="50" height="30" as="geometry" />
        </mxCell>
        <mxCell id="cykUmAgb2_RV6yECLL6O-101" value="Name" style="ellipse;whiteSpace=wrap;html=1;fontStyle=1" vertex="1" parent="1">
          <mxGeometry x="210" y="590" width="60" height="20" as="geometry" />
        </mxCell>
        <mxCell id="cykUmAgb2_RV6yECLL6O-102" value="" style="endArrow=none;html=1;rounded=0;" edge="1" parent="1">
          <mxGeometry width="50" height="50" relative="1" as="geometry">
            <mxPoint x="210" y="625" as="sourcePoint" />
            <mxPoint x="230" y="605" as="targetPoint" />
          </mxGeometry>
        </mxCell>
        <mxCell id="cykUmAgb2_RV6yECLL6O-103" value="" style="endArrow=none;html=1;rounded=0;" edge="1" parent="1">
          <mxGeometry width="50" height="50" relative="1" as="geometry">
            <mxPoint x="250" y="590" as="sourcePoint" />
            <mxPoint x="280" y="570" as="targetPoint" />
          </mxGeometry>
        </mxCell>
        <mxCell id="cykUmAgb2_RV6yECLL6O-104" value="" style="endArrow=none;html=1;rounded=0;" edge="1" parent="1">
          <mxGeometry width="50" height="50" relative="1" as="geometry">
            <mxPoint x="229" y="590" as="sourcePoint" />
            <mxPoint x="229" y="560" as="targetPoint" />
          </mxGeometry>
        </mxCell>
        <mxCell id="cykUmAgb2_RV6yECLL6O-105" value="" style="endArrow=none;html=1;rounded=0;exitX=1;exitY=1;exitDx=0;exitDy=0;" edge="1" parent="1" source="cykUmAgb2_RV6yECLL6O-10">
          <mxGeometry width="50" height="50" relative="1" as="geometry">
            <mxPoint x="220" y="680" as="sourcePoint" />
            <mxPoint x="220" y="690" as="targetPoint" />
          </mxGeometry>
        </mxCell>
        <mxCell id="cykUmAgb2_RV6yECLL6O-106" value="" style="endArrow=none;html=1;rounded=0;" edge="1" parent="1">
          <mxGeometry width="50" height="50" relative="1" as="geometry">
            <mxPoint x="130" y="890" as="sourcePoint" />
            <mxPoint x="180" y="840" as="targetPoint" />
          </mxGeometry>
        </mxCell>
        <mxCell id="cykUmAgb2_RV6yECLL6O-107" value="" style="endArrow=none;html=1;rounded=0;" edge="1" parent="1">
          <mxGeometry width="50" height="50" relative="1" as="geometry">
            <mxPoint x="140" y="900" as="sourcePoint" />
            <mxPoint x="190" y="850" as="targetPoint" />
          </mxGeometry>
        </mxCell>
        <mxCell id="cykUmAgb2_RV6yECLL6O-108" value="" style="endArrow=none;html=1;rounded=0;" edge="1" parent="1">
          <mxGeometry width="50" height="50" relative="1" as="geometry">
            <mxPoint x="150" y="910" as="sourcePoint" />
            <mxPoint x="200" y="860" as="targetPoint" />
          </mxGeometry>
        </mxCell>
        <mxCell id="cykUmAgb2_RV6yECLL6O-109" value="" style="endArrow=none;html=1;rounded=0;" edge="1" parent="1">
          <mxGeometry width="50" height="50" relative="1" as="geometry">
            <mxPoint x="160" y="920" as="sourcePoint" />
            <mxPoint x="210" y="870" as="targetPoint" />
          </mxGeometry>
        </mxCell>
        <mxCell id="cykUmAgb2_RV6yECLL6O-110" value="" style="endArrow=none;html=1;rounded=0;" edge="1" parent="1">
          <mxGeometry width="50" height="50" relative="1" as="geometry">
            <mxPoint x="170" y="930" as="sourcePoint" />
            <mxPoint x="220" y="880" as="targetPoint" />
          </mxGeometry>
        </mxCell>
        <mxCell id="cykUmAgb2_RV6yECLL6O-112" value="" style="endArrow=none;html=1;rounded=0;" edge="1" parent="1">
          <mxGeometry width="50" height="50" relative="1" as="geometry">
            <mxPoint x="550" y="910" as="sourcePoint" />
            <mxPoint x="525" y="880" as="targetPoint" />
          </mxGeometry>
        </mxCell>
        <mxCell id="cykUmAgb2_RV6yECLL6O-113" value="" style="endArrow=none;html=1;rounded=0;" edge="1" parent="1">
          <mxGeometry width="50" height="50" relative="1" as="geometry">
            <mxPoint x="400" y="900" as="sourcePoint" />
            <mxPoint x="445" y="860" as="targetPoint" />
          </mxGeometry>
        </mxCell>
        <mxCell id="cykUmAgb2_RV6yECLL6O-114" value="" style="endArrow=none;html=1;rounded=0;" edge="1" parent="1">
          <mxGeometry width="50" height="50" relative="1" as="geometry">
            <mxPoint x="300" y="910" as="sourcePoint" />
            <mxPoint x="445" y="840" as="targetPoint" />
          </mxGeometry>
        </mxCell>
        <mxCell id="cykUmAgb2_RV6yECLL6O-115" value="" style="endArrow=none;html=1;rounded=0;" edge="1" parent="1">
          <mxGeometry width="50" height="50" relative="1" as="geometry">
            <mxPoint x="440" y="930" as="sourcePoint" />
            <mxPoint x="445" y="880" as="targetPoint" />
          </mxGeometry>
        </mxCell>
        <mxCell id="cykUmAgb2_RV6yECLL6O-116" value="" style="endArrow=none;html=1;rounded=0;" edge="1" parent="1">
          <mxGeometry width="50" height="50" relative="1" as="geometry">
            <mxPoint x="290" y="720" as="sourcePoint" />
            <mxPoint x="270" y="700" as="targetPoint" />
          </mxGeometry>
        </mxCell>
        <mxCell id="cykUmAgb2_RV6yECLL6O-120" value="" style="endArrow=none;html=1;rounded=0;" edge="1" parent="1">
          <mxGeometry width="50" height="50" relative="1" as="geometry">
            <mxPoint x="260" y="740" as="sourcePoint" />
            <mxPoint x="250" y="710" as="targetPoint" />
          </mxGeometry>
        </mxCell>
        <mxCell id="cykUmAgb2_RV6yECLL6O-121" value="" style="endArrow=none;html=1;rounded=0;" edge="1" parent="1">
          <mxGeometry width="50" height="50" relative="1" as="geometry">
            <mxPoint x="230" y="740" as="sourcePoint" />
            <mxPoint x="230" y="710" as="targetPoint" />
          </mxGeometry>
        </mxCell>
        <mxCell id="cykUmAgb2_RV6yECLL6O-122" value="" style="endArrow=none;html=1;rounded=0;" edge="1" parent="1">
          <mxGeometry width="50" height="50" relative="1" as="geometry">
            <mxPoint x="195" y="720" as="sourcePoint" />
            <mxPoint x="215" y="700" as="targetPoint" />
          </mxGeometry>
        </mxCell>
        <mxCell id="cykUmAgb2_RV6yECLL6O-123" value="" style="endArrow=none;html=1;rounded=0;" edge="1" parent="1">
          <mxGeometry width="50" height="50" relative="1" as="geometry">
            <mxPoint x="130" y="690" as="sourcePoint" />
            <mxPoint x="150" y="670" as="targetPoint" />
          </mxGeometry>
        </mxCell>
        <mxCell id="cykUmAgb2_RV6yECLL6O-124" value="" style="endArrow=none;html=1;rounded=0;" edge="1" parent="1">
          <mxGeometry width="50" height="50" relative="1" as="geometry">
            <mxPoint x="100" y="610" as="sourcePoint" />
            <mxPoint x="130" y="630" as="targetPoint" />
          </mxGeometry>
        </mxCell>
        <mxCell id="cykUmAgb2_RV6yECLL6O-127" value="" style="endArrow=none;html=1;rounded=0;" edge="1" parent="1">
          <mxGeometry width="50" height="50" relative="1" as="geometry">
            <mxPoint x="110" y="670" as="sourcePoint" />
            <mxPoint x="130" y="650" as="targetPoint" />
          </mxGeometry>
        </mxCell>
        <mxCell id="cykUmAgb2_RV6yECLL6O-128" value="" style="endArrow=none;html=1;rounded=0;" edge="1" parent="1">
          <mxGeometry width="50" height="50" relative="1" as="geometry">
            <mxPoint x="120" y="580" as="sourcePoint" />
            <mxPoint x="165" y="635" as="targetPoint" />
          </mxGeometry>
        </mxCell>
        <mxCell id="cykUmAgb2_RV6yECLL6O-129" value="" style="endArrow=none;html=1;rounded=0;" edge="1" parent="1">
          <mxGeometry width="50" height="50" relative="1" as="geometry">
            <mxPoint x="120" y="250" as="sourcePoint" />
            <mxPoint x="100" y="230" as="targetPoint" />
          </mxGeometry>
        </mxCell>
        <mxCell id="cykUmAgb2_RV6yECLL6O-130" value="" style="endArrow=none;html=1;rounded=0;" edge="1" parent="1">
          <mxGeometry width="50" height="50" relative="1" as="geometry">
            <mxPoint x="750" y="980" as="sourcePoint" />
            <mxPoint x="730" y="950" as="targetPoint" />
          </mxGeometry>
        </mxCell>
        <mxCell id="cykUmAgb2_RV6yECLL6O-131" value="" style="endArrow=none;html=1;rounded=0;exitX=0.5;exitY=0;exitDx=0;exitDy=0;" edge="1" parent="1" source="cykUmAgb2_RV6yECLL6O-197">
          <mxGeometry width="50" height="50" relative="1" as="geometry">
            <mxPoint x="690" y="990" as="sourcePoint" />
            <mxPoint x="695" y="960" as="targetPoint" />
          </mxGeometry>
        </mxCell>
        <mxCell id="cykUmAgb2_RV6yECLL6O-135" value="" style="endArrow=none;html=1;rounded=0;" edge="1" parent="1">
          <mxGeometry width="50" height="50" relative="1" as="geometry">
            <mxPoint x="150" y="255" as="sourcePoint" />
            <mxPoint x="170" y="235" as="targetPoint" />
          </mxGeometry>
        </mxCell>
        <mxCell id="cykUmAgb2_RV6yECLL6O-136" value="" style="endArrow=none;html=1;rounded=0;" edge="1" parent="1">
          <mxGeometry width="50" height="50" relative="1" as="geometry">
            <mxPoint x="140" y="850" as="sourcePoint" />
            <mxPoint x="110" y="880" as="targetPoint" />
          </mxGeometry>
        </mxCell>
        <mxCell id="cykUmAgb2_RV6yECLL6O-137" value="" style="endArrow=none;html=1;rounded=0;" edge="1" parent="1">
          <mxGeometry width="50" height="50" relative="1" as="geometry">
            <mxPoint x="220" y="990" as="sourcePoint" />
            <mxPoint x="140" y="980" as="targetPoint" />
            <Array as="points">
              <mxPoint x="230" y="920" />
            </Array>
          </mxGeometry>
        </mxCell>
        <mxCell id="cykUmAgb2_RV6yECLL6O-138" value="" style="endArrow=none;html=1;rounded=0;exitX=0.375;exitY=0;exitDx=0;exitDy=0;exitPerimeter=0;entryX=1;entryY=0.5;entryDx=0;entryDy=0;" edge="1" parent="1" source="cykUmAgb2_RV6yECLL6O-189" target="cykUmAgb2_RV6yECLL6O-8">
          <mxGeometry width="50" height="50" relative="1" as="geometry">
            <mxPoint x="630" y="840" as="sourcePoint" />
            <mxPoint x="570" y="880" as="targetPoint" />
          </mxGeometry>
        </mxCell>
        <mxCell id="cykUmAgb2_RV6yECLL6O-139" value="" style="endArrow=none;html=1;rounded=0;" edge="1" parent="1">
          <mxGeometry width="50" height="50" relative="1" as="geometry">
            <mxPoint x="75" y="910" as="sourcePoint" />
            <mxPoint x="95" y="890" as="targetPoint" />
          </mxGeometry>
        </mxCell>
        <mxCell id="cykUmAgb2_RV6yECLL6O-140" value="" style="endArrow=none;html=1;rounded=0;" edge="1" parent="1">
          <mxGeometry width="50" height="50" relative="1" as="geometry">
            <mxPoint x="670" y="960" as="sourcePoint" />
            <mxPoint x="630" y="980" as="targetPoint" />
          </mxGeometry>
        </mxCell>
        <mxCell id="cykUmAgb2_RV6yECLL6O-141" value="" style="endArrow=none;html=1;rounded=0;entryX=0.625;entryY=1.07;entryDx=0;entryDy=0;entryPerimeter=0;" edge="1" parent="1" target="cykUmAgb2_RV6yECLL6O-8">
          <mxGeometry width="50" height="50" relative="1" as="geometry">
            <mxPoint x="495" y="950" as="sourcePoint" />
            <mxPoint x="474.5" y="880" as="targetPoint" />
          </mxGeometry>
        </mxCell>
        <mxCell id="cykUmAgb2_RV6yECLL6O-142" value="" style="endArrow=none;html=1;rounded=0;" edge="1" parent="1">
          <mxGeometry width="50" height="50" relative="1" as="geometry">
            <mxPoint x="115" y="930" as="sourcePoint" />
            <mxPoint x="135" y="910" as="targetPoint" />
          </mxGeometry>
        </mxCell>
        <mxCell id="cykUmAgb2_RV6yECLL6O-143" value="" style="endArrow=none;html=1;rounded=0;" edge="1" parent="1">
          <mxGeometry width="50" height="50" relative="1" as="geometry">
            <mxPoint x="350" y="90" as="sourcePoint" />
            <mxPoint x="400" y="50" as="targetPoint" />
          </mxGeometry>
        </mxCell>
        <mxCell id="cykUmAgb2_RV6yECLL6O-144" value="" style="endArrow=none;html=1;rounded=0;" edge="1" parent="1">
          <mxGeometry width="50" height="50" relative="1" as="geometry">
            <mxPoint x="360" y="100" as="sourcePoint" />
            <mxPoint x="410" y="60" as="targetPoint" />
          </mxGeometry>
        </mxCell>
        <mxCell id="cykUmAgb2_RV6yECLL6O-145" value="" style="endArrow=none;html=1;rounded=0;" edge="1" parent="1">
          <mxGeometry width="50" height="50" relative="1" as="geometry">
            <mxPoint x="360" y="330" as="sourcePoint" />
            <mxPoint x="360" y="300" as="targetPoint" />
          </mxGeometry>
        </mxCell>
        <mxCell id="cykUmAgb2_RV6yECLL6O-146" value="" style="endArrow=none;html=1;rounded=0;" edge="1" parent="1">
          <mxGeometry width="50" height="50" relative="1" as="geometry">
            <mxPoint x="330" y="260" as="sourcePoint" />
            <mxPoint x="310" y="230" as="targetPoint" />
          </mxGeometry>
        </mxCell>
        <mxCell id="cykUmAgb2_RV6yECLL6O-147" value="" style="endArrow=none;html=1;rounded=0;exitX=0.597;exitY=0.03;exitDx=0;exitDy=0;exitPerimeter=0;" edge="1" parent="1" source="cykUmAgb2_RV6yECLL6O-13">
          <mxGeometry width="50" height="50" relative="1" as="geometry">
            <mxPoint x="360" y="250" as="sourcePoint" />
            <mxPoint x="360" y="230" as="targetPoint" />
          </mxGeometry>
        </mxCell>
        <mxCell id="cykUmAgb2_RV6yECLL6O-148" value="" style="endArrow=none;html=1;rounded=0;" edge="1" parent="1">
          <mxGeometry width="50" height="50" relative="1" as="geometry">
            <mxPoint x="380" y="260" as="sourcePoint" />
            <mxPoint x="410" y="240" as="targetPoint" />
          </mxGeometry>
        </mxCell>
        <mxCell id="cykUmAgb2_RV6yECLL6O-149" value="" style="ellipse;whiteSpace=wrap;html=1;" vertex="1" parent="1">
          <mxGeometry x="210" y="30" width="80" height="30" as="geometry" />
        </mxCell>
        <mxCell id="cykUmAgb2_RV6yECLL6O-150" value="" style="ellipse;whiteSpace=wrap;html=1;" vertex="1" parent="1">
          <mxGeometry x="220" y="40" width="80" height="30" as="geometry" />
        </mxCell>
        <mxCell id="cykUmAgb2_RV6yECLL6O-151" value="" style="ellipse;whiteSpace=wrap;html=1;" vertex="1" parent="1">
          <mxGeometry x="230" y="50" width="80" height="30" as="geometry" />
        </mxCell>
        <mxCell id="cykUmAgb2_RV6yECLL6O-152" value="Product ID" style="ellipse;whiteSpace=wrap;html=1;fontStyle=1" vertex="1" parent="1">
          <mxGeometry x="320" y="330" width="80" height="20" as="geometry" />
        </mxCell>
        <mxCell id="cykUmAgb2_RV6yECLL6O-153" value="Cart ID" style="ellipse;whiteSpace=wrap;html=1;fontStyle=1" vertex="1" parent="1">
          <mxGeometry x="400" y="230" width="80" height="20" as="geometry" />
        </mxCell>
        <mxCell id="cykUmAgb2_RV6yECLL6O-154" value="Cart Item" style="ellipse;whiteSpace=wrap;html=1;fontStyle=5" vertex="1" parent="1">
          <mxGeometry x="325" y="210" width="80" height="20" as="geometry" />
        </mxCell>
        <mxCell id="cykUmAgb2_RV6yECLL6O-155" value="Quantity&amp;nbsp;" style="ellipse;whiteSpace=wrap;html=1;fontStyle=1" vertex="1" parent="1">
          <mxGeometry x="260" y="210" width="60" height="20" as="geometry" />
        </mxCell>
        <mxCell id="cykUmAgb2_RV6yECLL6O-156" value="" style="ellipse;whiteSpace=wrap;html=1;" vertex="1" parent="1">
          <mxGeometry x="240" y="60" width="80" height="30" as="geometry" />
        </mxCell>
        <mxCell id="cykUmAgb2_RV6yECLL6O-157" value="" style="ellipse;whiteSpace=wrap;html=1;" vertex="1" parent="1">
          <mxGeometry x="250" y="70" width="80" height="30" as="geometry" />
        </mxCell>
        <mxCell id="cykUmAgb2_RV6yECLL6O-158" value="" style="ellipse;whiteSpace=wrap;html=1;" vertex="1" parent="1">
          <mxGeometry x="260" y="80" width="80" height="30" as="geometry" />
        </mxCell>
        <mxCell id="cykUmAgb2_RV6yECLL6O-159" value="" style="ellipse;whiteSpace=wrap;html=1;" vertex="1" parent="1">
          <mxGeometry x="270" y="90" width="80" height="30" as="geometry" />
        </mxCell>
        <mxCell id="cykUmAgb2_RV6yECLL6O-160" value="" style="ellipse;whiteSpace=wrap;html=1;" vertex="1" parent="1">
          <mxGeometry x="280" y="100" width="80" height="30" as="geometry" />
        </mxCell>
        <mxCell id="cykUmAgb2_RV6yECLL6O-161" value="Stock&lt;div&gt;Quantity&lt;/div&gt;" style="ellipse;whiteSpace=wrap;html=1;fontStyle=1" vertex="1" parent="1">
          <mxGeometry x="340" y="380" width="80" height="30" as="geometry" />
        </mxCell>
        <mxCell id="cykUmAgb2_RV6yECLL6O-162" value="&lt;span style=&quot;font-weight: 700;&quot;&gt;Description&lt;/span&gt;" style="ellipse;whiteSpace=wrap;html=1;" vertex="1" parent="1">
          <mxGeometry x="640" y="235" width="80" height="30" as="geometry" />
        </mxCell>
        <mxCell id="cykUmAgb2_RV6yECLL6O-163" value="Price" style="ellipse;whiteSpace=wrap;html=1;fontStyle=1" vertex="1" parent="1">
          <mxGeometry x="650" y="270" width="80" height="30" as="geometry" />
        </mxCell>
        <mxCell id="cykUmAgb2_RV6yECLL6O-164" value="Description" style="ellipse;whiteSpace=wrap;html=1;fontStyle=1" vertex="1" parent="1">
          <mxGeometry x="490" y="50" width="80" height="30" as="geometry" />
        </mxCell>
        <mxCell id="cykUmAgb2_RV6yECLL6O-165" value="Category ID" style="ellipse;whiteSpace=wrap;html=1;fontStyle=5" vertex="1" parent="1">
          <mxGeometry x="590" y="40" width="80" height="30" as="geometry" />
        </mxCell>
        <mxCell id="cykUmAgb2_RV6yECLL6O-166" value="Category&amp;nbsp;&lt;div&gt;Name&lt;/div&gt;" style="ellipse;whiteSpace=wrap;html=1;fontStyle=1" vertex="1" parent="1">
          <mxGeometry x="690" y="50" width="80" height="30" as="geometry" />
        </mxCell>
        <mxCell id="cykUmAgb2_RV6yECLL6O-167" value="" style="endArrow=none;html=1;rounded=0;" edge="1" parent="1">
          <mxGeometry width="50" height="50" relative="1" as="geometry">
            <mxPoint x="420" y="390" as="sourcePoint" />
            <mxPoint x="520" y="305" as="targetPoint" />
          </mxGeometry>
        </mxCell>
        <mxCell id="cykUmAgb2_RV6yECLL6O-168" value="" style="endArrow=none;html=1;rounded=0;" edge="1" parent="1">
          <mxGeometry width="50" height="50" relative="1" as="geometry">
            <mxPoint x="480" y="170" as="sourcePoint" />
            <mxPoint x="550" y="260" as="targetPoint" />
          </mxGeometry>
        </mxCell>
        <mxCell id="cykUmAgb2_RV6yECLL6O-169" value="" style="endArrow=none;html=1;rounded=0;entryX=0.75;entryY=0;entryDx=0;entryDy=0;" edge="1" parent="1" target="cykUmAgb2_RV6yECLL6O-1">
          <mxGeometry width="50" height="50" relative="1" as="geometry">
            <mxPoint x="550" y="170" as="sourcePoint" />
            <mxPoint x="440" y="90" as="targetPoint" />
          </mxGeometry>
        </mxCell>
        <mxCell id="cykUmAgb2_RV6yECLL6O-170" value="" style="endArrow=none;html=1;rounded=0;" edge="1" parent="1">
          <mxGeometry width="50" height="50" relative="1" as="geometry">
            <mxPoint x="540" y="310" as="sourcePoint" />
            <mxPoint x="530" y="340" as="targetPoint" />
          </mxGeometry>
        </mxCell>
        <mxCell id="cykUmAgb2_RV6yECLL6O-171" value="" style="endArrow=none;html=1;rounded=0;" edge="1" parent="1">
          <mxGeometry width="50" height="50" relative="1" as="geometry">
            <mxPoint x="570" y="305" as="sourcePoint" />
            <mxPoint x="610" y="325" as="targetPoint" />
          </mxGeometry>
        </mxCell>
        <mxCell id="cykUmAgb2_RV6yECLL6O-172" value="" style="endArrow=none;html=1;rounded=0;" edge="1" parent="1">
          <mxGeometry width="50" height="50" relative="1" as="geometry">
            <mxPoint x="600" y="305" as="sourcePoint" />
            <mxPoint x="650" y="290" as="targetPoint" />
          </mxGeometry>
        </mxCell>
        <mxCell id="cykUmAgb2_RV6yECLL6O-173" value="" style="endArrow=none;html=1;rounded=0;" edge="1" parent="1">
          <mxGeometry width="50" height="50" relative="1" as="geometry">
            <mxPoint x="600" y="290" as="sourcePoint" />
            <mxPoint x="650" y="260" as="targetPoint" />
          </mxGeometry>
        </mxCell>
        <mxCell id="cykUmAgb2_RV6yECLL6O-174" value="" style="endArrow=none;html=1;rounded=0;entryX=0;entryY=1;entryDx=0;entryDy=0;" edge="1" parent="1" target="cykUmAgb2_RV6yECLL6O-183">
          <mxGeometry width="50" height="50" relative="1" as="geometry">
            <mxPoint x="600" y="275" as="sourcePoint" />
            <mxPoint x="630" y="255" as="targetPoint" />
            <Array as="points">
              <mxPoint x="610" y="270" />
            </Array>
          </mxGeometry>
        </mxCell>
        <mxCell id="cykUmAgb2_RV6yECLL6O-175" value="" style="endArrow=none;html=1;rounded=0;" edge="1" parent="1">
          <mxGeometry width="50" height="50" relative="1" as="geometry">
            <mxPoint x="585" y="100" as="sourcePoint" />
            <mxPoint x="565" y="80" as="targetPoint" />
          </mxGeometry>
        </mxCell>
        <mxCell id="cykUmAgb2_RV6yECLL6O-176" value="" style="endArrow=none;html=1;rounded=0;" edge="1" parent="1">
          <mxGeometry width="50" height="50" relative="1" as="geometry">
            <mxPoint x="627.5" y="100" as="sourcePoint" />
            <mxPoint x="627.5" y="70" as="targetPoint" />
          </mxGeometry>
        </mxCell>
        <mxCell id="cykUmAgb2_RV6yECLL6O-177" value="" style="endArrow=none;html=1;rounded=0;" edge="1" parent="1">
          <mxGeometry width="50" height="50" relative="1" as="geometry">
            <mxPoint x="665" y="100" as="sourcePoint" />
            <mxPoint x="695" y="80" as="targetPoint" />
          </mxGeometry>
        </mxCell>
        <mxCell id="cykUmAgb2_RV6yECLL6O-179" value="Product ID" style="ellipse;whiteSpace=wrap;html=1;fontStyle=5" vertex="1" parent="1">
          <mxGeometry x="430" y="140" width="80" height="30" as="geometry" />
        </mxCell>
        <mxCell id="cykUmAgb2_RV6yECLL6O-180" value="Category ID&lt;div&gt;FK&lt;/div&gt;" style="ellipse;whiteSpace=wrap;html=1;fontStyle=1" vertex="1" parent="1">
          <mxGeometry x="525" y="140" width="80" height="30" as="geometry" />
        </mxCell>
        <mxCell id="cykUmAgb2_RV6yECLL6O-181" value="Image URL" style="ellipse;whiteSpace=wrap;html=1;fontStyle=1" vertex="1" parent="1">
          <mxGeometry x="470" y="340" width="80" height="30" as="geometry" />
        </mxCell>
        <mxCell id="cykUmAgb2_RV6yECLL6O-182" value="Brand" style="ellipse;whiteSpace=wrap;html=1;fontStyle=1" vertex="1" parent="1">
          <mxGeometry x="610" y="310" width="80" height="30" as="geometry" />
        </mxCell>
        <mxCell id="cykUmAgb2_RV6yECLL6O-183" value="Product Name" style="ellipse;whiteSpace=wrap;html=1;fontStyle=1" vertex="1" parent="1">
          <mxGeometry x="640" y="200" width="80" height="30" as="geometry" />
        </mxCell>
        <mxCell id="cykUmAgb2_RV6yECLL6O-185" value="" style="ellipse;whiteSpace=wrap;html=1;" vertex="1" parent="1">
          <mxGeometry x="35" y="790" width="80" height="30" as="geometry" />
        </mxCell>
        <mxCell id="cykUmAgb2_RV6yECLL6O-186" value="" style="ellipse;whiteSpace=wrap;html=1;" vertex="1" parent="1">
          <mxGeometry x="45" y="800" width="80" height="30" as="geometry" />
        </mxCell>
        <mxCell id="cykUmAgb2_RV6yECLL6O-187" value="" style="ellipse;whiteSpace=wrap;html=1;" vertex="1" parent="1">
          <mxGeometry x="55" y="810" width="80" height="30" as="geometry" />
        </mxCell>
        <mxCell id="cykUmAgb2_RV6yECLL6O-188" value="Payment&lt;div&gt;Date&lt;/div&gt;" style="ellipse;whiteSpace=wrap;html=1;fontStyle=1" vertex="1" parent="1">
          <mxGeometry x="530" y="910" width="80" height="30" as="geometry" />
        </mxCell>
        <mxCell id="cykUmAgb2_RV6yECLL6O-189" value="Payment&amp;nbsp;&lt;div&gt;Method&lt;/div&gt;" style="ellipse;whiteSpace=wrap;html=1;fontStyle=1" vertex="1" parent="1">
          <mxGeometry x="650" y="930" width="80" height="30" as="geometry" />
        </mxCell>
        <mxCell id="cykUmAgb2_RV6yECLL6O-190" value="" style="ellipse;whiteSpace=wrap;html=1;" vertex="1" parent="1">
          <mxGeometry x="205" y="800" width="85" height="30" as="geometry" />
        </mxCell>
        <mxCell id="cykUmAgb2_RV6yECLL6O-191" value="Transaction&lt;div&gt;ID&lt;/div&gt;" style="ellipse;whiteSpace=wrap;html=1;fontStyle=1" vertex="1" parent="1">
          <mxGeometry x="400" y="920" width="90" height="30" as="geometry" />
        </mxCell>
        <mxCell id="cykUmAgb2_RV6yECLL6O-192" value="Payment ID" style="ellipse;whiteSpace=wrap;html=1;fontStyle=5" vertex="1" parent="1">
          <mxGeometry x="330" y="900" width="80" height="30" as="geometry" />
        </mxCell>
        <mxCell id="cykUmAgb2_RV6yECLL6O-193" value="" style="ellipse;whiteSpace=wrap;html=1;" vertex="1" parent="1">
          <mxGeometry x="300" y="800" width="80" height="30" as="geometry" />
        </mxCell>
        <mxCell id="cykUmAgb2_RV6yECLL6O-194" value="" style="ellipse;whiteSpace=wrap;html=1;" vertex="1" parent="1">
          <mxGeometry x="270" y="820" width="80" height="30" as="geometry" />
        </mxCell>
        <mxCell id="cykUmAgb2_RV6yECLL6O-195" value="" style="ellipse;whiteSpace=wrap;html=1;" vertex="1" parent="1">
          <mxGeometry x="215" y="820" width="80" height="30" as="geometry" />
        </mxCell>
        <mxCell id="cykUmAgb2_RV6yECLL6O-196" value="PayPal" style="ellipse;whiteSpace=wrap;html=1;fontStyle=1" vertex="1" parent="1">
          <mxGeometry x="590" y="980" width="80" height="30" as="geometry" />
        </mxCell>
        <mxCell id="cykUmAgb2_RV6yECLL6O-197" value="Stripe" style="ellipse;whiteSpace=wrap;html=1;fontStyle=1" vertex="1" parent="1">
          <mxGeometry x="665" y="1020" width="80" height="30" as="geometry" />
        </mxCell>
        <mxCell id="cykUmAgb2_RV6yECLL6O-198" value="Card" style="ellipse;whiteSpace=wrap;html=1;fontStyle=1" vertex="1" parent="1">
          <mxGeometry x="730" y="980" width="80" height="30" as="geometry" />
        </mxCell>
        <mxCell id="cykUmAgb2_RV6yECLL6O-199" value="Failed" style="ellipse;whiteSpace=wrap;html=1;fontStyle=1" vertex="1" parent="1">
          <mxGeometry x="80" y="980" width="80" height="30" as="geometry" />
        </mxCell>
        <mxCell id="cykUmAgb2_RV6yECLL6O-200" value="Completed" style="ellipse;whiteSpace=wrap;html=1;fontStyle=1" vertex="1" parent="1">
          <mxGeometry x="180" y="990" width="80" height="30" as="geometry" />
        </mxCell>
      </root>
    </mxGraphModel>
  </diagram>
</mxfile>
